<svg width="600" height="300" viewBox="0 0 600 300" fill="none" xmlns="http://www.w3.org/2000/svg">
  <rect x="350" y="100" width="200" height="120" rx="10" fill="#4F46E5"/>
  <rect x="370" y="120" width="30" height="30" rx="5" fill="white"/>
  <rect x="410" y="120" width="120" height="10" rx="5" fill="white"/>
  <rect x="410" y="140" width="80" height="10" rx="5" fill="white"/>
  <rect x="410" y="160" width="100" height="10" rx="5" fill="white"/>
  <rect x="410" y="180" width="60" height="10" rx="5" fill="white"/>
  <rect x="50" y="100" width="250" height="150" rx="10" fill="#F1F5F9"/>
  <rect x="70" y="120" width="210" height="110" rx="5" fill="white"/>
  <rect x="90" y="140" width="50" height="50" rx="5" fill="#4F46E5"/>
  <rect x="150" y="140" width="110" height="10" rx="5" fill="#CBD5E1"/>
  <rect x="150" y="160" width="80" height="10" rx="5" fill="#CBD5E1"/>
  <rect x="150" y="180" width="100" height="10" rx="5" fill="#CBD5E1"/>
  <path d="M300 180 L350 180 L350 220 L300 220 Z" fill="#4F46E5"/>
  <circle cx="310" cy="220" r="10" fill="#1E293B"/>
  <circle cx="340" cy="220" r="10" fill="#1E293B"/>
</svg>

